# AST/ASF file generated using VICON BodyLanguage
# -----------------------------------------------
:version 1.10
:name VICON
:units
  mass 1.0
  length 0.45
  angle deg
:documentation
   .ast/.asf automatically generated from VICON data using
   VICON BodyBuilder and BodyLanguage model FoxedUp or BRILLIANT.MOD
:root
   order TX TY TZ RX RY RZ
   axis XYZ
   position 0 0 0  
   orientation 0 0 0 
:bonedata
  begin
     id 1 
     name lhipjoint
     direction 0.610259 -0.730986 0.305356 
     length 2.50941 
     axis 0 0 0  XYZ
  end
  begin
     id 2 
     name lfemur
     direction 0.34202 -0.939693 0  
     length 7.48822  
     axis 0 0 20  XYZ
    dof rx ry rz
    limits (-160.0 20.0)
           (-70.0 70.0)
           (-60.0 70.0)
  end
  begin
     id 3 
     name ltibia
     direction 0.34202 -0.939693 0   
     length 7.60141   
     axis 0 0 20   XYZ
    dof rx
    limits (-10.0 170.0)
  end
  begin
     id 4 
     name lfoot
     direction 0.0673488 -0.185039 0.980421   
     length 2.04049   
     axis -90 7.62852e-016 20   XYZ
    dof rx rz
    limits (-45.0 90.0)
           (-70.0 20.0)
  end
  begin
     id 5 
     name ltoes
     direction 1.5356e-011 -4.21729e-011 1   
     length 1.02897   
     axis -90 7.62852e-016 20   XYZ
    dof rx
    limits (-90.0 20.0)
  end
  begin
     id 6 
     name rhipjoint
     direction -0.57612 -0.754205 0.315056   
     length 2.43216  
     axis 0 0 0  XYZ 
  end
  begin
     id 7 
     name rfemur
     direction -0.34202 -0.939693 0   
     length 7.42799   
     axis 0 0 -20   XYZ
    dof rx ry rz
    limits (-160.0 20.0)
           (-70.0 70.0)
           (-70.0 60.0)
  end
  begin
     id 8 
     name rtibia
     direction -0.34202 -0.939693 0   
     length 7.69484   
     axis 0 0 -20   XYZ
    dof rx
    limits (-10.0 170.0)
 end
 begin
     id 9 
     name rfoot
     direction -0.111837 -0.30727 0.945028   
     length 2.15769  
     axis -90 -7.62852e-016 -20   XYZ
    dof rx rz
    limits (-45.0 90.0)
           (-20.0 70.0)
  end
  begin
     id 10 
     name rtoes
     direction -1.53539e-011 -4.21878e-011 1   
     length 1.07391   
     axis -90 -7.62852e-016 -20   XYZ
    dof rx
    limits (-90.0 20.0)
  end
  begin
     id 11 
     name lowerback
     direction 0.00552624 0.990109 -0.140195   
     length 2.12403   
     axis 0 0 0   XYZ
    dof rx ry rz
    limits (-20.0 45.0)
           (-30.0 30.0)
           (-30.0 30.0)
  end
  begin
     id 12 
     name upperback
     direction 0.00361898 0.999976 -0.00584723   
     length 2.13232   
     axis 0 0 0   XYZ
    dof rx ry rz
    limits (-20.0 45.0)
           (-30.0 30.0)
           (-30.0 30.0)
  end
  begin
     id 13 
     name thorax
     direction -0.000331275 0.998253 0.0590847   
     length 2.17688   
     axis 0 0 0   XYZ
    dof rx ry rz
    limits (-20.0 45.0)
           (-30.0 30.0)
           (-30.0 30.0)
  end
  begin
     id 14 
     name lowerneck
     direction -0.0561561 0.979832 0.19177   
     length 1.64159   
     axis 0 0 0   XYZ
    dof rx ry rz
    limits (-20.0 45.0)
           (-30.0 30.0)
           (-30.0 30.0)
  end
  begin
     id 15 
     name upperneck
     direction 0.0827153 0.979385 -0.184293   
     length 1.68939   
     axis 0 0 0   XYZ
    dof rx ry rz
    limits (-20.0 45.0)
           (-30.0 30.0)
           (-30.0 30.0)
  end
  begin
     id 16
     name head
     direction 0.0278583 0.995936 -0.0856488  
     length 1.70207  
     axis 0 0 0   XYZ
    dof rx ry rz
    limits (-20.0 45.0)
           (-30.0 30.0)
           (-30.0 30.0)
  end
  begin
     id 17 
     name lclavicle
     direction 0.950993 0.301131 -0.0702275  
     length 3.41652  
     axis 0 0 0   XYZ
    dof ry rz
    limits (-20.0 10.0)
           (0.0 20.0)
  end
  begin
     id 18 
     name lhumerus
     direction 1 -4.48981e-011 -3.9662e-029   
     length 5.32955   
     axis 180 -30 -90   XYZ
    dof rx ry rz
    limits (-60.0 90.0)
           (-90.0 90.0)
           (-90.0 90.0)
  end
  begin
     id 19
     name lradius
     direction 1 -4.48925e-011 -9.0549e-027   
     length 3.69232   
     axis 180 -30 -90   XYZ
    dof rx
    limits (-10.0 170.0)
  end
  begin
     id 20
     name lwrist
     direction 1 -4.49007e-011 -1.49005e-026   
     length 1.84616   
     axis 9.0955e-015 90 90   XYZ
    dof ry
    limits (-180.0 0.0)
 end
  begin
     id 21 
     name lhand
     direction 1 -4.49016e-011 -2.98023e-026   
     length 0.536598   
     axis 1.90115e-014 90 90   XYZ
    dof rx rz
    limits (-90.0 90.0)
           (-45.0 45.0)
  end
  begin
     id 22 
     name lfingers
     direction 1 -4.48924e-011 -5.9578e-026   
     length 0.432619   
     axis 3.80223e-014 90 90   XYZ
    dof rx
    limits (0.0 90.0)
  end
  begin
     id 23
     name lthumb
     direction 0.707107 -6.34947e-011 0.707107   
     length 0.621157   
     axis -90 45 -3.84942e-014   XYZ
    dof rx rz
    limits (-45.0 45.0)
           (-45.0 45.0)
  end
  begin
     id 24 
     name rclavicle
     direction -0.955495 0.276497 -0.102848   
     length 3.36357  
     axis 0 0 0   XYZ 
    dof ry rz
    limits (-10.0 20.0)
           (-20.0 0.0)
  end
  begin
     id 25 
     name rhumerus
     direction -1 -4.48961e-011 3.30983e-027  
     length 5.23431   
     axis 180 30 90   XYZ
    dof rx ry rz
    limits (-90.0 60.0)
           (-90.0 90.0)
           (-90.0 90.0)
  end
  begin
     id 26 
     name rradius
     direction -1 -4.48965e-011 -6.63263e-027   
     length 3.55301   
     axis 180 30 90   XYZ
    dof rx
    limits (-10.0 170.0)
  end
  begin
     id 27 
     name rwrist
     direction -1 -4.48942e-011 -1.48958e-026   
     length 1.77651   
     axis 9.0955e-015 -90 -90   XYZ
    dof ry
    limits (-180.0 0.0)
  end
  begin
     id 28
     name rhand
     direction -1 -4.48977e-011 -2.97966e-026   
     length 0.772522   
     axis 1.90115e-014 -90 -90   XYZ
    dof rx rz
    limits (-90.0 90.0)
           (-45.0 45.0)
  end
  begin
     id 29
     name rfingers
     direction -1 -4.49135e-011 -5.96389e-026   
     length 0.622827   
     axis 3.80223e-014 -90 -90   XYZ
    dof rx
    limits (0.0 90.0)
  end
  begin
     id 30
     name rthumb
     direction -0.707107 -6.34969e-011 0.707107   
     length 0.894259   
     axis -90 -45 3.84942e-014   XYZ
    dof rx rz
    limits (-45.0 45.0)
           (-45.0 45.0)
  end
:hierarchy
  begin
    root lhipjoint rhipjoint lowerback
    lhipjoint lfemur
    lfemur ltibia
    ltibia lfoot
    lfoot ltoes
    rhipjoint rfemur
    rfemur rtibia
    rtibia rfoot
    rfoot rtoes
    lowerback upperback
    upperback thorax
    thorax lowerneck lclavicle rclavicle
    lowerneck upperneck
    upperneck head
    lclavicle lhumerus
    lhumerus lradius
    lradius lwrist
    lwrist lhand lthumb
    lhand lfingers
    rclavicle rhumerus
    rhumerus rradius
    rradius rwrist
    rwrist rhand rthumb
    rhand rfingers
  end

#!OML:ASF F:\VICON\USERDATA\INSTALL\rory3\rory3.ASF
:FULLY-SPECIFIED
:DEGREES
1
root 15.0057 17.8614 -10.1167 -3.68641 -80.9163 5.447
lowerback 4.45353 1.37063 0.0574523
upperback -2.27428 1.83895 0.207292
thorax -4.85416 0.911208 0.0244004
lowerneck -25.9364 1.96563 -5.72229
upperneck 28.2595 3.20524 5.6705
head 13.7094 1.51613 3.8326
rclavicle 7.44821e-015 5.96354e-015
rhumerus -35.2873 -11.6919 -81.7091
rradius 27.2269
rwrist 8.49486
rhand -16.5777 9.31078
rfingers 7.12502
rthumb 9.64277 -20.4485
lclavicle 7.44821e-015 5.96354e-015
lhumerus -33.8337 4.37658 85.9409
lradius 26.67
lwrist -9.50937
lhand -18.6798 25.8585
lfingers 7.12502
lthumb 7.61427 55.7014
rfemur -6.8786 1.03375 24.2536
rtibia 30.0949
rfoot -19.7061 -7.89009
rtoes 5.53669
lfemur -5.17147 -4.60309 -22.4755
ltibia 22.955
lfoot -14.498 3.19851
ltoes -12.7323
2
root 15.0071 17.8624 -10.1197 -3.64422 -80.9316 5.4363
lowerback 4.44903 1.36414 0.0304398
upperback -2.29526 1.82924 0.225331
thorax -4.87493 0.907463 0.058792
lowerneck -25.8349 1.95607 -5.64529
upperneck 28.1988 3.17809 5.59406
head 13.6685 1.50274 3.77815
rclavicle 4.27325e-014 -1.98785e-015
rhumerus -35.2925 -11.725 -81.7093
rradius 27.2461
rwrist 8.55827
rhand -16.6397 9.31384
rfingers 7.12502
rthumb 9.58301 -20.4482
lclavicle 4.27325e-014 -1.98785e-015
lhumerus -33.8629 4.09831 86.0652
lradius 26.7496
lwrist -9.17488
lhand -18.3482 25.8676
lfingers 7.12502
lthumb 7.93425 55.6987
rfemur -6.92763 1.03245 24.2582
rtibia 30.1111
rfoot -19.7735 -7.80241
rtoes 6.18595
lfemur -5.1981 -4.59535 -22.4574
ltibia 22.9276
lfoot -14.4782 3.20434
ltoes -12.7781
3
root 15.009 17.8625 -10.1218 -4.10513 -80.9318 5.91219
lowerback 4.45515 1.35223 -0.0705989
upperback -2.29841 1.80781 0.248556
thorax -4.88558 0.900497 0.140989
lowerneck -25.6907 1.90983 -5.8003
upperneck 28.0968 3.13986 5.68341
head 13.5934 1.48454 3.82423
rclavicle -2.30901e-014 -2.98177e-015
rhumerus -35.2866 -11.6419 -81.709
rradius 27.2578
rwrist 8.59796
rhand -16.7059 9.24407
rfingers 7.12502
rthumb 9.51911 -20.5209
lclavicle -2.30901e-014 -2.98177e-015
lhumerus -33.8751 3.85499 86.2202
lradius 26.7978
lwrist -8.78712
lhand -18.1929 25.7747
lfingers 7.12502
lthumb 8.08417 55.6001
rfemur -6.96347 1.03844 24.1827
rtibia 30.1426
rfoot -19.7524 -7.79984
rtoes 5.97953
lfemur -5.21219 -4.51331 -22.5224
ltibia 22.9072
lfoot -14.4955 3.10075
ltoes -12.5991
4
root 15.0095 17.8613 -10.1222 -4.73902 -80.9782 6.54744
lowerback 4.45296 1.34867 -0.158491
upperback -2.28217 1.79679 0.234477
thorax -4.86963 0.89772 0.176886
lowerneck -25.6758 1.87566 -5.97282
upperneck 28.0894 3.1143 5.82825
head 13.582 1.47583 3.90599
rclavicle -2.79044e-014 -4.77083e-015
rhumerus -35.2471 -11.5571 -81.7744
rradius 27.2741
rwrist 8.5521
rhand -16.7552 9.21487
rfingers 7.12502
rthumb 9.47156 -20.5523
lclavicle -2.79044e-014 -4.77083e-015
lhumerus -33.8668 3.56961 86.3368
lradius 26.8408
lwrist -8.27285
lhand -18.8167 25.8142
lfingers 7.12502
lthumb 7.4821 55.6619
rfemur -6.97043 1.02697 24.0622
rtibia 30.1447
rfoot -19.729 -7.75382
rtoes 5.9722
lfemur -5.20974 -4.49689 -22.6339
ltibia 22.9129
lfoot -14.5052 3.11826
ltoes -12.5352
5
root 15.0112 17.8606 -10.1235 -4.35491 -80.9881 6.13788
lowerback 4.48551 1.32922 -0.113696
upperback -2.25524 1.77564 0.274451
thorax -4.85984 0.886517 0.194524
lowerneck -25.7774 1.89459 -5.93424
upperneck 28.1441 3.16615 5.72517
head 13.6253 1.48625 3.87294
rclavicle -2.18601e-014 -4.57205e-015
rhumerus -35.207 -11.4769 -81.8343
rradius 27.353
rwrist 8.49068
rhand -16.7999 9.12664
rfingers 7.12502
rthumb 9.4284 -20.6425
lclavicle -2.18601e-014 -4.57205e-015
lhumerus -33.8471 3.36952 86.4601
lradius 26.916
lwrist -7.95087
lhand -19.3436 25.9019
lfingers 7.12502
lthumb 6.97352 55.7671
rfemur -6.95318 1.15863 24.1541
rtibia 30.1451
rfoot -19.745 -7.90343
rtoes 6.02982
lfemur -5.20265 -4.52939 -22.5623
ltibia 22.9214
lfoot -14.4601 3.15986
ltoes -12.5751
